<?xml version="1.0" encoding="iso-8859-1"?>
<!-- Generator: Adobe Illustrator 19.0.0, SVG Export Plug-In . SVG Version: 6.00 Build 0)  -->
<svg version="1.1" id="Capa_1" xmlns="http://www.w3.org/2000/svg" xmlns:xlink="http://www.w3.org/1999/xlink" x="0px" y="0px"
	 viewBox="0 0 480 480" style="enable-background:new 0 0 480 480;" xml:space="preserve">
<g>
	<g>
		<path d="M395.072,116H480v-16h-84.928c-8.962,0.014-17.662,3.021-24.72,8.544l-85.112,66.88
			c-6.945,5.463-8.147,15.522-2.684,22.468c3.034,3.858,7.672,6.11,12.58,6.108H480v-16H295.136l85.096-66.872
			C384.471,117.816,389.693,116.011,395.072,116z"/>
	</g>
</g>
<g>
	<g>
		<path d="M63.2,227.272l146.104-23.376c1.269-0.21,2.468-0.724,3.496-1.496L360,92c6.93-5.181,15.347-7.987,24-8h96V68h-96
			c-12.114,0.019-23.898,3.947-33.6,11.2L236,164.992L98.872,59.024C72.824,38.959,40.881,28.054,8,28c-4.418,0-8,3.582-8,8v32
			c0,4.418,3.582,8,8,8c10.859,0.034,21.65,1.723,32,5.008v137.08c-24.562,12.08-40.088,37.108-40,64.48V332
			c0.026,22.08,17.92,39.974,40,40h73.44c8.783,52.224,58.239,87.44,110.463,78.657c40.302-6.778,71.879-38.355,78.657-78.657H480
			v-16H304c-0.023-10.908-1.917-21.732-5.6-32H480v-16H291.016c-26.383-45.826-84.919-61.588-130.745-35.206
			c-11.845,6.819-22.093,16.096-30.055,27.206H96v-24c0-13.255-10.745-24-24-24H25.056C33.683,238.715,47.551,229.725,63.2,227.272z
			 M60.624,211.48c-1.6,0.248-3.096,0.6-4.624,0.952V87.48c6.515,3.231,12.681,7.123,18.4,11.616
			c55.32,43.8,95.576,75.92,115.032,91.768L60.624,211.48z M16,60.264v-16c26.557,1.652,52.013,11.208,73.096,27.44l133.6,103.272
			l-14.336,10.752c-17.952-15.04-75.456-60.752-124-99.2C64.751,71.067,40.917,61.911,16,60.264z M128.752,345.6
			c0.112-0.856,0.248-1.704,0.392-2.552c0.485-3.025,1.145-6.019,1.976-8.968c0.104-0.368,0.176-0.752,0.288-1.12
			c1.021-3.351,2.264-6.63,3.72-9.816c0.248-0.552,0.52-1.088,0.8-1.6c19.002-39.844,66.705-56.74,106.549-37.739
			C270.306,297.077,288.02,325.17,288,356c0,2.456-0.16,4.864-0.376,7.264c-3.996,43.975-42.884,76.385-86.859,72.389
			c-38.44-3.493-68.897-33.949-72.389-72.389c-0.216-2.4-0.376-4.8-0.376-7.264C128.024,352.521,128.275,349.047,128.752,345.6z
			 M120.752,316c-0.152,0.32-0.248,0.664-0.392,0.984c-0.944,2.112-1.776,4.28-2.568,6.464c-0.344,0.944-0.72,1.872-1.032,2.832
			c-0.744,2.272-1.352,4.6-1.928,6.944c-0.216,0.904-0.496,1.792-0.696,2.704c-0.528,2.48-0.896,5.016-1.232,7.568
			c-0.104,0.8-0.28,1.6-0.368,2.4c-0.356,3.356-0.535,6.729-0.536,10.104H40c-13.255,0-24-10.745-24-24v-16H120.752z M72,268
			c4.418,0,8,3.582,8,8v24H16v-17.432c0.001-4.919,0.643-9.816,1.912-14.568H72z"/>
	</g>
</g>
<g>
	<g>
		<path d="M208.576,299.362c-31.104-0.159-56.448,24.927-56.607,56.032c-0.017,3.33,0.261,6.654,0.832,9.935
			c4.468,26.987,27.846,46.753,55.2,46.672c31.104,0.159,56.448-24.927,56.607-56.032
			C264.766,324.864,239.68,299.521,208.576,299.362z M208,396c-22.091,0-40-17.909-40-40c0.026-22.08,17.92-39.974,40-40
			c22.08,0.026,39.974,17.92,40,40C248,378.092,230.092,396,208,396z"/>
	</g>
</g>
<g>
	<g>
		<path d="M440,220h-40c-13.255,0-24,10.745-24,24c0,13.255,10.745,24,24,24h40c13.255,0,24-10.745,24-24
			C464,230.745,453.255,220,440,220z M440,252h-40c-4.418,0-8-3.582-8-8s3.582-8,8-8h40c4.418,0,8,3.582,8,8S444.419,252,440,252z"
			/>
	</g>
</g>
<g>
</g>
<g>
</g>
<g>
</g>
<g>
</g>
<g>
</g>
<g>
</g>
<g>
</g>
<g>
</g>
<g>
</g>
<g>
</g>
<g>
</g>
<g>
</g>
<g>
</g>
<g>
</g>
<g>
</g>
</svg>
