<?xml version="1.0" encoding="iso-8859-1"?>
<!-- Generator: Adobe Illustrator 19.0.0, SVG Export Plug-In . SVG Version: 6.00 Build 0)  -->
<svg version="1.1" id="Capa_1" xmlns="http://www.w3.org/2000/svg" xmlns:xlink="http://www.w3.org/1999/xlink" x="0px" y="0px"
	 viewBox="0 0 512 512" style="enable-background:new 0 0 512 512;" xml:space="preserve">
<g>
	<g>
		<path d="M380.988,417.169l-8.866,77.764H148.42l-8.875-77.773l-16.956,1.937l9.728,85.333c0.495,4.309,4.147,7.569,8.482,7.569
			h238.933c4.343,0,7.987-3.26,8.474-7.56l9.728-85.333L380.988,417.169z"/>
	</g>
</g>
<g>
	<g>
		<path d="M428.766,122.317c-1.613-1.809-3.934-2.85-6.366-2.85H98.133c-2.432,0-4.745,1.041-6.366,2.85
			c-1.621,1.818-2.389,4.233-2.116,6.647l9.728,85.333l16.964-1.929l-8.644-75.836h305.143l-8.644,75.827l16.947,1.937l9.728-85.333
			C431.147,126.549,430.379,124.134,428.766,122.317z"/>
	</g>
</g>
<g>
	<g>
		<path d="M448,68.267H64c-4.71,0-8.533,3.823-8.533,8.533V128c0,4.71,3.823,8.533,8.533,8.533h384c4.719,0,8.533-3.823,8.533-8.533
			V76.8C456.533,72.09,452.719,68.267,448,68.267z M439.467,119.467H72.533V85.333h366.933V119.467z"/>
	</g>
</g>
<g>
	<g>
		<path d="M430.677,74.726L413.611,6.46C412.655,2.671,409.25,0,405.333,0H115.2c-3.917,0-7.33,2.671-8.277,6.46L89.856,74.726
			c-0.64,2.552-0.06,5.248,1.553,7.322c1.613,2.074,4.096,3.285,6.724,3.285H422.4c2.628,0,5.103-1.212,6.724-3.285
			C430.746,79.974,431.317,77.278,430.677,74.726z M109.064,68.267l12.8-51.2h276.804l12.8,51.2H109.064z"/>
	</g>
</g>
<g>
	<g>
		<path d="M445.867,207.684c-1.621-1.835-3.951-2.884-6.4-2.884h-358.4c-2.449,0-4.779,1.05-6.391,2.884
			c-1.621,1.835-2.381,4.275-2.074,6.707l25.6,204.8c0.529,4.267,4.164,7.475,8.465,7.475h307.2c4.301,0,7.936-3.209,8.465-7.475
			l25.6-204.8C448.239,211.959,447.479,209.519,445.867,207.684z M406.332,409.6h-292.13L90.735,221.867h339.063L406.332,409.6z"/>
	</g>
</g>
<g>
	<g>
		<path d="M260.267,256c-32.939,0-59.733,26.803-59.733,59.733c0,32.93,26.795,59.733,59.733,59.733
			c32.93,0,59.733-26.803,59.733-59.733C320,282.803,293.197,256,260.267,256z M260.267,358.4c-23.526,0-42.667-19.14-42.667-42.667
			c0-23.526,19.14-42.667,42.667-42.667c23.526,0,42.667,19.14,42.667,42.667C302.933,339.26,283.793,358.4,260.267,358.4z"/>
	</g>
</g>
<g>
</g>
<g>
</g>
<g>
</g>
<g>
</g>
<g>
</g>
<g>
</g>
<g>
</g>
<g>
</g>
<g>
</g>
<g>
</g>
<g>
</g>
<g>
</g>
<g>
</g>
<g>
</g>
<g>
</g>
</svg>
