<?xml version="1.0" encoding="iso-8859-1"?>
<!-- Generator: Adobe Illustrator 19.0.0, SVG Export Plug-In . SVG Version: 6.00 Build 0)  -->
<svg version="1.1" id="Capa_1" xmlns="http://www.w3.org/2000/svg" xmlns:xlink="http://www.w3.org/1999/xlink" x="0px" y="0px"
	 viewBox="0 0 511.992 511.992" style="enable-background:new 0 0 511.992 511.992;" xml:space="preserve">
<g>
	<g>
		<path d="M490.325,342.285L277.453,231.838c-13.431-6.861-29.483-6.861-42.914,0c-0.017,0.009-0.034,0.017-0.051,0.026
			L21.641,342.302C8.269,349.299-0.017,363.021,0,378.193c0.239,22.016,18.338,39.936,40.363,39.936h431.275
			c22.255,0,40.363-18.108,40.354-40.448C511.846,362.765,503.561,349.214,490.325,342.285z M471.637,401.062H40.363
			c-12.706,0-23.159-10.342-23.296-22.963c-0.009-8.721,4.779-16.64,12.459-20.659L242.33,247.027
			c8.576-4.361,18.816-4.361,27.315-0.009l212.796,110.404c7.629,3.994,12.416,11.819,12.493,20.343
			C494.933,390.609,484.489,401.062,471.637,401.062z"/>
	</g>
</g>
<g>
	<g>
		<path d="M464.623,367.825l-204.8-102.4c-2.406-1.203-5.239-1.203-7.637,0l-204.8,102.4c-3.541,1.766-5.393,5.734-4.489,9.591
			c0.904,3.857,4.343,6.579,8.303,6.579h409.6c3.959,0,7.39-2.722,8.311-6.579C470.025,373.568,468.164,369.591,464.623,367.825z
			 M87.347,366.929L256,282.603l168.653,84.326H87.347z"/>
	</g>
</g>
<g>
	<g>
		<path d="M259.84,93.862c-30.345,0-55.04,24.687-55.04,55.04v4.693h17.067v-4.693c0-20.932,17.041-37.973,38.827-37.973
			c20.941,0,37.973,17.041,37.982,37.922c-0.06,11.332-5.137,21.939-14.046,29.193l-27.938,23.603
			c-5.879,4.89-9.233,12.075-9.225,19.703v17.579h17.067v-17.596c0-2.543,1.118-4.941,3.115-6.605l27.878-23.544
			c12.749-10.385,20.113-25.779,20.207-42.283C315.733,118.558,291.038,93.862,259.84,93.862z"/>
	</g>
</g>
<g>
</g>
<g>
</g>
<g>
</g>
<g>
</g>
<g>
</g>
<g>
</g>
<g>
</g>
<g>
</g>
<g>
</g>
<g>
</g>
<g>
</g>
<g>
</g>
<g>
</g>
<g>
</g>
<g>
</g>
</svg>
