<?xml version="1.0" encoding="iso-8859-1"?>
<!-- Generator: Adobe Illustrator 19.0.0, SVG Export Plug-In . SVG Version: 6.00 Build 0)  -->
<svg version="1.1" id="Capa_1" xmlns="http://www.w3.org/2000/svg" xmlns:xlink="http://www.w3.org/1999/xlink" x="0px" y="0px"
	 viewBox="0 0 512 512" style="enable-background:new 0 0 512 512;" xml:space="preserve">
<g>
	<g>
		<path d="M149.333,426.667c-23.526,0-42.667,19.14-42.667,42.667c0,23.526,19.14,42.667,42.667,42.667
			C172.86,512,192,492.86,192,469.333C192,445.807,172.86,426.667,149.333,426.667z M149.333,494.933
			c-14.114,0-25.6-11.486-25.6-25.6s11.486-25.6,25.6-25.6s25.6,11.486,25.6,25.6S163.447,494.933,149.333,494.933z"/>
	</g>
</g>
<g>
	<g>
		<path d="M456.533,426.667c-23.526,0-42.667,19.14-42.667,42.667c0,23.526,19.14,42.667,42.667,42.667
			c23.526,0,42.667-19.14,42.667-42.667C499.2,445.807,480.06,426.667,456.533,426.667z M456.533,494.933
			c-14.114,0-25.6-11.486-25.6-25.6s11.486-25.6,25.6-25.6c14.114,0,25.6,11.486,25.6,25.6S470.647,494.933,456.533,494.933z"/>
	</g>
</g>
<g>
	<g>
		<path d="M491.725,170.735L89.6,120.465V75.358c0-6.775-2.748-13.406-7.535-18.159L70.033,45.167L57.967,57.233l12.058,12.058
			c1.596,1.587,2.509,3.789,2.509,6.059V332.8c0,23.526,19.14,42.667,42.667,42.667h341.333c23.526,0,42.667-19.14,42.667-42.667
			V179.2C499.2,174.899,495.992,171.264,491.725,170.735z M482.133,332.8c0,14.114-11.486,25.6-25.6,25.6H115.2
			c-14.114,0-25.6-11.486-25.6-25.6V137.668l392.533,49.067V332.8z"/>
	</g>
</g>
<g>
	<g>
		<path d="M115.2,426.667c-14.114,0-25.6-11.486-25.6-25.6v-76.8H72.533v76.8c0,23.526,19.14,42.667,42.667,42.667h341.333v-17.067
			H115.2z"/>
	</g>
</g>
<g>
	<g>
		<rect x="81.067" y="247.467" width="409.6" height="17.067"/>
	</g>
</g>
<g>
	<g>
		<rect x="123.733" y="136.533" width="17.067" height="230.4"/>
	</g>
</g>
<g>
	<g>
		<rect x="277.333" y="153.6" width="17.067" height="213.333"/>
	</g>
</g>
<g>
	<g>
		<rect x="226.133" y="153.6" width="17.067" height="213.333"/>
	</g>
</g>
<g>
	<g>
		<rect x="174.933" y="145.067" width="17.067" height="221.867"/>
	</g>
</g>
<g>
	<g>
		<rect x="328.533" y="162.133" width="17.067" height="204.8"/>
	</g>
</g>
<g>
	<g>
		<rect x="379.733" y="170.667" width="17.067" height="196.267"/>
	</g>
</g>
<g>
	<g>
		<rect x="430.933" y="179.2" width="17.067" height="187.733"/>
	</g>
</g>
<g>
	<g>
		<path d="M46.933,0C28.109,0,12.8,15.309,12.8,34.133c0,18.825,15.309,34.133,34.133,34.133s34.133-15.309,34.133-34.133
			C81.067,15.309,65.758,0,46.933,0z M46.933,51.2c-9.412,0-17.067-7.654-17.067-17.067c0-9.412,7.654-17.067,17.067-17.067
			C56.346,17.067,64,24.721,64,34.133C64,43.546,56.346,51.2,46.933,51.2z"/>
	</g>
</g>
<g>
</g>
<g>
</g>
<g>
</g>
<g>
</g>
<g>
</g>
<g>
</g>
<g>
</g>
<g>
</g>
<g>
</g>
<g>
</g>
<g>
</g>
<g>
</g>
<g>
</g>
<g>
</g>
<g>
</g>
</svg>
