<?xml version="1.0" encoding="iso-8859-1"?>
<!-- Generator: Adobe Illustrator 19.0.0, SVG Export Plug-In . SVG Version: 6.00 Build 0)  -->
<svg version="1.1" id="Capa_1" xmlns="http://www.w3.org/2000/svg" xmlns:xlink="http://www.w3.org/1999/xlink" x="0px" y="0px"
	 viewBox="0 0 480.001 480.001" style="enable-background:new 0 0 480.001 480.001;" xml:space="preserve">
<g>
	<g>
		<rect x="72.001" y="144" width="16" height="192"/>
	</g>
</g>
<g>
	<g>
		<path d="M120.001,329.6V146.208c38.522-22.526,51.49-72.015,28.964-110.537c-9.541-16.317-24.501-28.772-42.276-35.199
			c-4.161-1.485-8.738,0.685-10.223,4.847C96.159,6.18,96.001,7.087,96.001,8v60.432h-32V8c-0.004-4.418-3.589-7.997-8.007-7.993
			c-0.914,0.001-1.82,0.158-2.681,0.465c-9.855,3.507-18.92,8.929-26.672,15.952C-6.494,46.381-9.071,97.526,20.885,130.661
			c5.54,6.128,11.987,11.372,19.115,15.547V329.6c-24.854,14.414-40.109,41.013-40,69.744c0.256,44.182,36.279,79.792,80.461,79.536
			c44.182-0.256,79.792-36.279,79.536-80.461C159.834,370.004,144.609,343.809,120.001,329.6z M137.362,427.234
			c-15.685,31.676-54.078,44.639-85.754,28.954C19.933,440.503,6.97,402.11,22.655,370.434c6.22-12.562,16.392-22.734,28.954-28.954
			c2.697-1.363,4.396-4.13,4.392-7.152v-192.88c0.001-3.026-1.704-5.793-4.408-7.152c-31.962-16.1-44.822-55.061-28.722-87.024
			c5.621-11.159,14.348-20.455,25.13-26.768v55.928c0,4.418,3.582,8,8,8h48c4.418,0,8-3.582,8-8v-55.92
			c30.879,18.143,41.204,57.883,23.061,88.762c-6.301,10.724-15.553,19.41-26.653,25.022c-2.704,1.359-4.409,4.126-4.408,7.152
			v192.88c-0.001,3.026,1.704,5.793,4.408,7.152C140.084,357.165,153.047,395.558,137.362,427.234z"/>
	</g>
</g>
<g>
	<g>
		<path d="M126.401,395.2l-24-32c-1.511-2.014-3.882-3.2-6.4-3.2h-32c-2.518,0-4.889,1.186-6.4,3.2l-24,32
			c-2.133,2.844-2.133,6.755,0,9.6l24,32c1.511,2.014,3.882,3.2,6.4,3.2h32c2.518,0,4.889-1.186,6.4-3.2l24-32
			C128.534,401.956,128.534,398.045,126.401,395.2z M92.001,424h-24l-18-24l18-24h24l18,24L92.001,424z"/>
	</g>
</g>
<g>
	<g>
		<path d="M479.593,341.472l-23.592-70.768V248c0-4.418-3.582-8-8-8v-40c0.001-1.874-0.656-3.689-1.856-5.128l-11.896-14.28
			c8.838-10.145,13.721-23.137,13.752-36.592V88c0.014-1.238-0.26-2.462-0.8-3.576l-40-80c-1.362-2.725-4.153-4.441-7.2-4.424h-32
			c-3.047-0.017-5.838,1.699-7.2,4.424l-40,80c-0.54,1.114-0.814,2.338-0.8,3.576v56c0.029,13.457,4.915,26.45,13.76,36.592
			l-11.904,14.28c-1.2,1.439-1.857,3.254-1.856,5.128v40c-4.418,0-8,3.582-8,8v22.704l-23.592,70.768
			c-0.271,0.815-0.409,1.669-0.408,2.528v104c0,17.673,14.327,32,32,32c17.673,0,32-14.327,32-32V345.296l23.592-70.768
			c0.271-0.815,0.409-1.669,0.408-2.528v-24c0-4.418-3.582-8-8-8v-21.6l12.28-18.4h7.44l12.28,18.4V240c-4.418,0-8,3.582-8,8v24
			c-0.001,0.859,0.137,1.713,0.408,2.528l23.592,70.768V448c0,17.673,14.327,32,32,32c17.673,0,32-14.327,32-32V344
			C480.001,343.141,479.863,342.288,479.593,341.472z M392.001,16h3.056l36.944,73.888V144c-0.007,8.716-2.868,17.19-8.144,24.128
			l-15.856-19.008c0.512-0.576,0.904-1.24,1.368-1.856c0.464-0.616,1.032-1.32,1.496-2.032c0.621-1.005,1.184-2.044,1.688-3.112
			c0.36-0.712,0.76-1.4,1.064-2.152c0.474-1.243,0.869-2.515,1.184-3.808c0.176-0.664,0.424-1.288,0.56-1.968
			c0.413-2.039,0.627-4.112,0.64-6.192c-0.011-2.015-0.214-4.024-0.608-6c-0.12-0.632-0.32-1.232-0.48-1.848
			c-0.312-1.285-0.705-2.549-1.176-3.784c-0.272-0.68-0.584-1.336-0.896-1.992c-0.517-1.099-1.096-2.168-1.736-3.2
			c-0.392-0.624-0.8-1.232-1.216-1.832c-0.744-1-1.545-1.956-2.4-2.864c-0.456-0.496-0.88-1.008-1.368-1.48
			c-1.074-1.026-2.221-1.972-3.432-2.832c-0.344-0.248-0.64-0.544-1-0.8c-1.59-1.057-3.271-1.97-5.024-2.728
			c-0.496-0.216-1.024-0.344-1.536-0.536c-1.045-0.428-2.113-0.796-3.2-1.104L392.001,16z M400.001,128c0,8.837-7.163,16-16,16
			s-16-7.163-16-16s7.163-16,16-16S400.001,119.164,400.001,128z M360.001,270.704l-23.592,70.768
			c-0.271,0.815-0.409,1.669-0.408,2.528v104c0,8.837-7.163,16-16,16s-16-7.163-16-16V345.296l23.592-70.768
			c0.271-0.815,0.409-1.669,0.408-2.528v-16h32V270.704z M353.345,211.56c-0.874,1.316-1.341,2.86-1.344,4.44v24h-16v-37.104
			l9.816-11.768c0.16,0.104,0.344,0.168,0.512,0.272c2.204,1.38,4.5,2.607,6.872,3.672c0.408,0.176,0.8,0.352,1.224,0.52
			c2.413,1.027,4.897,1.88,7.432,2.552c0.12,0,0.232,0.088,0.352,0.12L353.345,211.56z M398.657,187.56
			c-1.484-2.225-3.982-3.56-6.656-3.56h-16c-22.069-0.053-39.947-17.931-40-40V89.888L372.945,16h3.056v81.016
			c-1.087,0.308-2.155,0.676-3.2,1.104c-0.512,0.192-1.04,0.32-1.536,0.536c-1.753,0.758-3.434,1.671-5.024,2.728
			c-0.36,0.24-0.656,0.536-1,0.8c-1.211,0.86-2.358,1.806-3.432,2.832c-0.488,0.472-0.912,0.984-1.368,1.48
			c-0.855,0.908-1.656,1.864-2.4,2.864c-0.432,0.6-0.8,1.208-1.216,1.832c-0.64,1.032-1.219,2.101-1.736,3.2
			c-0.312,0.656-0.624,1.312-0.896,1.992c-0.471,1.235-0.864,2.499-1.176,3.784c-0.16,0.616-0.36,1.216-0.48,1.848
			c-0.368,1.973-0.548,3.977-0.536,5.984c0,17.673,14.327,32,32,32h12.256l21.08,25.304l14.664,17.592V240h-16v-24
			c-0.003-1.58-0.47-3.124-1.344-4.44L398.657,187.56z M464.001,448c0,8.837-7.163,16-16,16s-16-7.163-16-16V344
			c0.001-0.859-0.137-1.713-0.408-2.528l-23.592-70.768V256h32v16c-0.001,0.859,0.137,1.713,0.408,2.528l23.592,70.768V448z"/>
	</g>
</g>
<g>
	<g>
		<path d="M272.001,192h8c4.418,0,8-3.582,8-8V56c-0.01-6.305-1.092-12.562-3.2-18.504v-0.168c0-0.104-0.096-0.2-0.128-0.304
			c-1.879-5.155-4.505-10.007-7.792-14.4c-0.216-0.296-0.432-0.592-0.656-0.88c-1.601-2.07-3.344-4.027-5.216-5.856l-0.496-0.448
			c-1.83-1.731-3.775-3.335-5.824-4.8c-0.184-0.136-0.36-0.28-0.552-0.416c-2.153-1.505-4.41-2.858-6.752-4.048
			c-0.288-0.152-0.584-0.28-0.88-0.424c-2.35-1.164-4.78-2.159-7.272-2.976l-0.104-0.04c-2.493-0.785-5.038-1.395-7.616-1.824
			c-0.528-0.088-1.048-0.168-1.6-0.24c-5.226-0.832-10.55-0.832-15.776,0c-0.528,0.072-1.048,0.144-1.6,0.24
			c-2.578,0.429-5.123,1.039-7.616,1.824h-0.104c-2.492,0.82-4.922,1.817-7.272,2.984c-0.296,0.144-0.592,0.272-0.88,0.424
			c-2.342,1.19-4.599,2.543-6.752,4.048c-0.192,0.136-0.368,0.28-0.552,0.416c-2.049,1.465-3.994,3.069-5.824,4.8l-0.496,0.448
			c-1.874,1.832-3.62,3.791-5.224,5.864c-0.216,0.28-0.432,0.576-0.648,0.864c-3.287,4.394-5.912,9.245-7.792,14.4
			c0,0.104-0.096,0.2-0.128,0.304v0.168c-2.129,5.952-3.227,12.223-3.248,18.544v128c0,4.418,3.582,8,8,8h8c4.418,0,8,3.582,8,8
			s-3.582,8-8,8h-8c-4.418,0-8,3.582-8,8v32c0,4.418,3.582,8,8,8h24v150.704l-7.592,22.768c-0.441,1.32-0.527,2.733-0.248,4.096
			l8,40c0.747,3.738,4.028,6.43,7.84,6.432h32c3.802,0.001,7.08-2.675,7.84-6.4l8-40c0.279-1.363,0.193-2.776-0.248-4.096
			l-7.592-22.8V256h24c4.418,0,8-3.582,8-8v-32c0-4.418-3.582-8-8-8h-8c-4.418,0-8-3.582-8-8S267.582,192,272.001,192z
			 M203.377,28.152c0.384-0.392,0.8-0.744,1.192-1.12c1.365-1.292,2.817-2.489,4.344-3.584c0.352-0.248,0.68-0.528,1.04-0.8
			c1.783-1.168,3.655-2.193,5.6-3.064c0.528-0.24,1.064-0.48,1.6-0.696c2.025-0.82,4.115-1.471,6.248-1.944
			c0.448-0.104,0.904-0.16,1.352-0.248c4.751-0.968,9.649-0.968,14.4,0c0.448,0.088,0.904,0.144,1.352,0.248
			c2.133,0.473,4.223,1.123,6.248,1.944c0.544,0.216,1.08,0.456,1.6,0.696c1.945,0.872,3.817,1.896,5.6,3.064
			c0.36,0.24,0.688,0.52,1.04,0.8c1.527,1.095,2.979,2.292,4.344,3.584c0.392,0.376,0.8,0.728,1.192,1.12
			c1.147,1.214,2.216,2.499,3.2,3.848h-63.52C201.182,30.652,202.241,29.367,203.377,28.152z M241.441,464h-18.88l-6.296-31.488
			l7.328-21.984c0.271-0.815,0.409-1.669,0.408-2.528V256h16v152c-0.001,0.859,0.137,1.713,0.408,2.528l7.328,21.984L241.441,464z
			 M272.001,224v16h-80v-16c13.255,0,24-10.745,24-24s-10.745-24-24-24V56c-0.003-2.687,0.265-5.367,0.8-8h78.4
			c0.535,2.633,0.803,5.313,0.8,8v120c-13.255,0-24,10.745-24,24S258.746,224,272.001,224z"/>
	</g>
</g>
<g>
	<g>
		<rect x="224.001" y="64" width="16" height="112"/>
	</g>
</g>
<g>
</g>
<g>
</g>
<g>
</g>
<g>
</g>
<g>
</g>
<g>
</g>
<g>
</g>
<g>
</g>
<g>
</g>
<g>
</g>
<g>
</g>
<g>
</g>
<g>
</g>
<g>
</g>
<g>
</g>
</svg>
